<svg xmlns="http://www.w3.org/2000/svg" xmlns:xlink="http://www.w3.org/1999/xlink" xmlns:serif="http://www.serif.com/" viewBox="0 0 101 125" version="1.1" xml:space="preserve" style="" x="0px" y="0px" fill-rule="evenodd" clip-rule="evenodd" stroke-linejoin="round" stroke-miterlimit="1.41421"><rect serif:id="Page 10" x="0.5" y="0" width="100" height="100" style="" fill="none"/><g><ellipse fill="white" cx="33.03" cy="50.198" rx="5.876" ry="6.325"/><ellipse fill="white" cx="67.801" cy="50.198" rx="5.876" ry="6.325"/><ellipse fill="white" cx="50.415" cy="50.198" rx="5.876" ry="6.325"/><path d="M9.888,48.098c1.253,-0.006 2.495,-0.085 3.652,-0.544c2.077,-0.825 1.692,-4.574 1.834,-6.213c0.015,-0.17 0.031,-0.34 0.047,-0.51c0.031,-0.326 0.063,-0.652 0.094,-0.978c0.241,-2.659 -0.172,-5.284 0.564,-7.793c1.073,-3.658 3.876,-6.836 7.939,-7.522c0.32,-0.054 0.642,-0.099 0.962,-0.15c1.376,-0.23 2.734,-0.701 4.161,-0.698c0.512,0.008 1.193,0.152 1.193,0.152c1.482,0.496 1.996,2.698 0.667,3.7c-0.812,0.613 -1.899,0.287 -2.908,0.478c-0.534,0.102 -1.061,0.237 -1.59,0.36c-0.485,0.109 -0.519,0.11 -0.743,0.148c-0.321,0.054 -0.644,0.099 -0.965,0.151c-3.003,0.498 -5.037,3.747 -5.007,6.975c0.021,2.118 -0.093,4.231 -0.242,6.354c-0.145,2.268 -0.017,4.555 -1.439,6.821c-0.312,0.497 -0.681,0.952 -1.104,1.354c0.125,0.12 0.246,0.247 0.364,0.382c1.976,2.266 1.987,5.677 2.214,8.243c0.176,1.934 0.245,3.884 0.209,5.82c-0.04,3.082 1.551,6.525 5.005,7.089c0.388,0.064 0.777,0.117 1.164,0.187c1.101,0.207 2.218,0.756 3.293,0.58c2.782,-0.487 3.738,4.007 0.167,4.213c-1.778,0.103 -3.532,-0.538 -5.303,-0.823c-4.843,-0.803 -8.511,-5.578 -8.54,-10.886c-0.004,-0.617 0.027,-1.233 0.046,-1.85c0.059,-2.192 -0.272,-4.373 -0.285,-6.618c-0.021,-1.54 -0.617,-3.287 -2.048,-3.769c-1.163,-0.392 -2.412,-0.448 -3.671,-0.451c-0.295,0.004 -0.589,0.004 -0.883,0.004l-0.051,0c-0.107,0 -0.214,0 -0.321,0c0,0 -1.244,-0.14 -1.776,-0.971c-0.076,-0.12 -0.137,-0.247 -0.183,-0.379c-0.071,-0.168 -0.118,-0.35 -0.138,-0.547c-0.071,-0.708 0.262,-1.395 0.811,-1.834c0.275,-0.241 0.615,-0.409 1.003,-0.462c0.537,-0.072 0.709,-0.019 1.037,-0.019c0.255,0.001 0.512,0.002 0.771,0.006Z" style="" fill="white" fill-rule="nonzero"/><path d="M84.107,49.826c-0.145,-0.138 -0.285,-0.284 -0.419,-0.441c-1.933,-2.255 -1.946,-5.629 -2.173,-8.195c-0.176,-1.933 -0.245,-3.884 -0.209,-5.82c0.04,-3.081 -1.551,-6.525 -5.005,-7.089c-1.499,-0.245 -3.031,-1 -4.457,-0.767c-2.225,0.389 -3.264,-2.144 -2.026,-3.482c0.517,-0.558 1.338,-0.727 2.137,-0.74c0.091,0 0.09,0 0.181,0.001c1.645,0.041 3.256,0.575 4.845,0.831c4.842,0.803 8.51,5.579 8.539,10.886c0.004,0.617 -0.027,1.233 -0.046,1.85c-0.059,2.197 0.273,4.373 0.285,6.618c0.021,1.535 0.618,3.287 2.049,3.77c1.167,0.393 2.421,0.447 3.686,0.45c0.341,-0.004 0.683,-0.004 1.025,-0.004l0.214,0l0.012,0.001c0.155,0.006 0.305,0.033 0.448,0.077c0.266,0.064 0.595,0.177 0.845,0.374c0.505,0.398 0.73,1.045 0.7,1.69c0.051,0.717 -0.247,1.438 -1.055,1.845c-0.08,0.04 -0.163,0.074 -0.249,0.102c-0.13,0.048 -0.269,0.084 -0.417,0.104c-0.561,0.076 -0.796,0.029 -1.139,0.02l-0.079,0c-1.76,0.01 -3.863,-0.315 -5.017,1.178c-1.577,2.039 -1.045,5.188 -1.242,7.531c-0.199,2.46 0.196,4.869 -0.523,7.322c-1.073,3.66 -3.876,6.836 -7.939,7.522c-0.32,0.054 -0.641,0.099 -0.962,0.151c-1.745,0.291 -3.529,0.962 -5.217,0.58c0,0 -1.183,-0.412 -1.517,-1.34c-0.508,-1.412 0.835,-2.975 2.479,-2.762c0.852,0.102 1.795,-0.254 2.732,-0.47c0.486,-0.11 0.519,-0.11 0.744,-0.149c0.321,-0.054 0.643,-0.099 0.964,-0.151c3.003,-0.498 5.038,-3.747 5.007,-6.975c-0.021,-2.117 0.093,-4.23 0.242,-6.354c0.097,-1.513 -0.056,-3.07 0.395,-4.529c0.427,-1.378 1.129,-2.654 2.162,-3.635Z" style="" fill="white" fill-rule="nonzero"/></g></svg>
