<svg xmlns="http://www.w3.org/2000/svg" xmlns:xlink="http://www.w3.org/1999/xlink" version="1.0" x="0px" y="0px" viewBox="0 0 100 125" enable-background="new 0 0 100 100" xml:space="preserve"><path d="M18.495533,89.8859711c-3.4405022-2.636879-5.6379032-6.9437866-5.6379032-11.5143814V21.6284122  c0-8.0362101,6.5796471-14.6284142,14.6158562-14.6284142h57.6723633c1.1049805,0,1.9964905,0.8915172,1.9964905,1.9964957  v65.8969269c0,1.1049805-0.89151,1.9964981-1.9964905,1.9964981H32.4333344c-5.8011379,0-10.5475254,4.6333771-10.7484303,10.384285  c1.6574688,1.0924225,3.653965,1.720253,5.7885818,1.720253H83.149353v-7.30793c0-2.636879,3.9929886-2.636879,3.9929886,0  v9.3169785c0,1.1049805-0.89151,1.9964981-1.9964905,1.9964981H27.4734859C24.095768,93,20.9817352,91.8322372,18.495533,89.8859711  z M42.1395683,11.0055466h-13.837347v45.2539063c8.0989933-9.2541962,5.8262501-9.3169785,13.837347-0.0502243V11.0055466z" fill="#c27c1a"/><text x="0" y="115" fill="#000000" font-size="5px" font-weight="bold" font-family="'Helvetica Neue', Helvetica, Arial-Unicode, Arial, Sans-serif">Created by sofi</text><text x="0" y="120" fill="#000000" font-size="5px" font-weight="bold" font-family="'Helvetica Neue', Helvetica, Arial-Unicode, Arial, Sans-serif">from the Noun Project</text></svg>
