<svg xmlns="http://www.w3.org/2000/svg" viewBox="0 0 24 30" x="0px" y="0px"><title>_</title><g><path d="M17,4H7A3,3,0,0,0,4,7V17a3,3,0,0,0,3,3H17a3,3,0,0,0,3-3V7A3,3,0,0,0,17,4Zm2,13a2.00226,2.00226,0,0,1-2,2H7a2.0023,2.0023,0,0,1-2-2V7A2.00226,2.00226,0,0,1,7,5H17a2.00222,2.00222,0,0,1,2,2ZM16,7H8A1,1,0,0,0,7,8v8a1,1,0,0,0,1,1h8a1,1,0,0,0,1-1V8A1,1,0,0,0,16,7ZM8,16V11h2v5Zm8,0H11V11h5Zm0-6H8V8h8Z" fill="#b180d7"/></g><text x="0" y="39" fill="#b180d7" font-size="5px" font-weight="bold" font-family="'Helvetica Neue', Helvetica, Arial-Unicode, Arial, Sans-serif">Created by Sophia Bai</text><text x="0" y="44" fill="#b180d7" font-size="5px" font-weight="bold" font-family="'Helvetica Neue', Helvetica, Arial-Unicode, Arial, Sans-serif">from the Noun Project</text></svg>
