<svg xmlns="http://www.w3.org/2000/svg" xmlns:xlink="http://www.w3.org/1999/xlink" viewBox="0 0 24 30" version="1.1" x="0px" y="0px"><title>icon/function-solid</title><desc>Created with Sketch.</desc><g stroke="none" stroke-width="1" fill="none" fill-rule="evenodd"><path d="M21.4004,10.7998 L19.7994,9.5998 L17.0004,13.3328 L14.5004,9.9998 L10.3374,9.9998 L11.7954,3.0778 C11.8144,2.9878 12.0004,2.9898 12.0004,3.0998 L12.0004,3.4998 L14.0004,3.4998 L14.0004,3.0998 C14.0004,1.9418 13.0584,0.9998 11.8924,0.9998 C10.9044,0.9998 10.0404,1.7008 9.8374,2.6668 L8.2944,9.9998 L6.0004,9.9998 L6.0004,11.9998 L7.8734,11.9998 L6.2054,19.9218 C6.1854,20.0118 6.0004,20.0098 6.0004,19.9008 L6.0004,19.4998 L4.0004,19.4998 L4.0004,19.9008 C4.0004,21.0588 4.9414,21.9998 6.1074,21.9998 C7.0954,21.9998 7.9604,21.2988 8.1624,20.3328 L9.9164,11.9998 L13.5004,11.9998 L15.5994,14.7998 L15.7504,14.9998 L12.5994,19.1998 L14.2004,20.4008 L17.0004,16.6668 L19.7994,20.4008 L21.4004,19.1998 L18.2504,14.9998 L21.4004,10.7998 Z" fill="#3ea9f5"/></g><text x="0" y="39" fill="#3ea9f5" font-size="5px" font-weight="bold" font-family="'Helvetica Neue', Helvetica, Arial-Unicode, Arial, Sans-serif">Created by Travis Avery</text><text x="0" y="44" fill="#3ea9f5" font-size="5px" font-weight="bold" font-family="'Helvetica Neue', Helvetica, Arial-Unicode, Arial, Sans-serif">from the Noun Project</text></svg>
